<svg width="16" height="16" viewBox="0 0 16 16" fill="none" xmlns="http://www.w3.org/2000/svg">
<path d="M15.8125 8.00012C15.8125 8.24876 15.7137 8.48722 15.5379 8.66303C15.3621 8.83885 15.1236 8.93762 14.875 8.93762H8.9375V14.8751C8.9375 15.1238 8.83873 15.3622 8.66291 15.538C8.4871 15.7139 8.24864 15.8126 8 15.8126C7.75136 15.8126 7.5129 15.7139 7.33709 15.538C7.16127 15.3622 7.0625 15.1238 7.0625 14.8751V8.93762H1.125C0.87636 8.93762 0.637903 8.83885 0.462087 8.66303C0.286272 8.48722 0.1875 8.24876 0.1875 8.00012C0.1875 7.75148 0.286272 7.51302 0.462087 7.33721C0.637903 7.16139 0.87636 7.06262 1.125 7.06262H7.0625V1.12512C7.0625 0.876482 7.16127 0.638025 7.33709 0.462209C7.5129 0.286394 7.75136 0.187622 8 0.187622C8.24864 0.187622 8.4871 0.286394 8.66291 0.462209C8.83873 0.638025 8.9375 0.876482 8.9375 1.12512V7.06262H14.875C15.1236 7.06262 15.3621 7.16139 15.5379 7.33721C15.7137 7.51302 15.8125 7.75148 15.8125 8.00012Z" fill="black"/>
</svg>
